<svg width="217" height="217" viewBox="0 0 217 217" fill="none" xmlns="http://www.w3.org/2000/svg">
<path d="M0 108.5C0 36.1667 36.1667 0 108.5 0C180.833 0 217 36.1667 217 108.5C217 180.833 180.833 217 108.5 217C36.1667 217 0 180.833 0 108.5Z" fill="url(#paint0_linear_15_24)"/>
<path d="M166.393 43.3281C164.752 47.0781 163.287 50.3594 161.998 53.1719C160.709 55.9844 159.596 58.3867 158.658 60.3789C157.604 62.6055 156.725 64.5977 156.021 66.3555C155.436 67.6445 154.674 69.4023 153.736 71.6289C152.799 73.6211 151.627 76.2578 150.221 79.5391C148.932 82.7031 147.232 86.8047 145.123 91.8438C144.068 87.5078 142.779 83.6992 141.256 80.418C139.732 77.1367 138.092 74.2656 136.334 71.8047C134.576 69.3438 132.701 67.3516 130.709 65.8281C128.834 64.1875 126.959 62.8398 125.084 61.7852C120.748 59.4414 116.178 58.1523 111.373 57.918C105.045 58.2695 100.064 59.3242 96.4316 61.082C92.916 62.7227 90.3379 64.6562 88.6973 66.8828C87.0566 68.9922 86.1777 71.2188 86.0605 73.5625C85.9434 75.7891 86.2363 77.6641 86.9395 79.1875C87.5254 80.5938 89.5762 82.2344 93.0918 84.1094C96.7246 85.9844 101.061 88.1523 106.1 90.6133C111.256 92.957 116.764 95.6523 122.623 98.6992C128.482 101.629 133.873 104.91 138.795 108.543C143.834 112.059 148.053 115.926 151.451 120.145C154.967 124.246 156.9 128.641 157.252 133.328C157.604 139.305 157.545 144.695 157.076 149.5C156.607 154.305 154.967 158.406 152.154 161.805C149.342 165.203 144.947 167.898 138.971 169.891C133.111 171.883 124.967 173.113 114.537 173.582C103.756 174.051 94.9082 173.465 87.9941 171.824C81.0801 170.184 75.4551 167.957 71.1191 165.145C66.9004 162.332 63.7363 159.227 61.627 155.828C59.6348 152.43 58.1699 149.207 57.2324 146.16C56.2949 142.996 55.6504 140.301 55.2988 138.074C54.9473 135.73 54.3613 134.324 53.541 133.855C52.6035 133.27 51.666 132.742 50.7285 132.273C49.9082 131.805 49.0293 131.395 48.0918 131.043C47.1543 130.574 46.2168 130.164 45.2793 129.812L96.4316 121.551C93.502 123.895 91.2168 126.062 89.5762 128.055C88.0527 130.047 86.8809 131.805 86.0605 133.328C85.123 135.086 84.4785 136.727 84.127 138.25C83.8926 139.891 84.4199 141.941 85.709 144.402C86.998 146.863 88.7559 149.266 90.9824 151.609C93.3262 153.836 96.0215 155.711 99.0684 157.234C102.115 158.758 105.279 159.402 108.561 159.168C112.662 158.816 116.002 157.82 118.58 156.18C121.158 154.422 123.092 152.254 124.381 149.676C125.787 147.098 126.607 144.285 126.842 141.238C127.076 138.191 126.783 135.203 125.963 132.273C125.26 129.227 124.088 126.414 122.447 123.836C120.807 121.141 118.873 118.914 116.646 117.156C114.654 115.75 111.549 114.402 107.33 113.113C103.229 111.824 98.5996 110.418 93.4434 108.895C88.4043 107.371 83.1895 105.613 77.7988 103.621C72.5254 101.629 67.7207 99.168 63.3848 96.2383C59.166 93.3086 55.7676 89.8516 53.1895 85.8672C50.7285 81.8828 49.791 77.0781 50.377 71.4531C50.8457 66.6484 52.3691 62.6641 54.9473 59.5C57.6426 56.2188 60.9824 53.6406 64.9668 51.7656C69.0684 49.7734 73.5801 48.3086 78.502 47.3711C83.541 46.4336 88.6387 45.9062 93.7949 45.7891C99.0684 45.5547 104.225 45.6133 109.264 45.9648C114.42 46.3164 119.049 46.7266 123.15 47.1953C127.252 47.6641 130.709 48.1328 133.521 48.6016C136.451 48.9531 138.268 49.1875 138.971 49.3047C142.018 49.5391 145.064 49.4805 148.111 49.1289C150.807 48.8945 153.736 48.3672 156.9 47.5469C160.182 46.6094 163.346 45.2031 166.393 43.3281Z" fill="white"/>
<defs>
<linearGradient id="paint0_linear_15_24" x1="45" y1="20" x2="160" y2="163" gradientUnits="userSpaceOnUse">
<stop stop-color="#4DA3FF"/>
<stop offset="0.5" stop-color="#5CDB95"/>
</linearGradient>
</defs>
</svg>
