<svg width="217" height="233" viewBox="0 0 217 233" fill="none" xmlns="http://www.w3.org/2000/svg">
<path d="M0 124.5C0 52.1667 36.1667 16 108.5 16C180.833 16 217 52.1667 217 124.5C217 196.833 180.833 233 108.5 233C36.1667 233 0 196.833 0 124.5Z" fill="url(#paint0_linear_1_27)"/>
<path d="M160.016 38.625C158.557 41.9583 157.255 44.875 156.109 47.375C154.964 49.875 153.974 52.0104 153.141 53.7812C152.203 55.7604 151.422 57.5312 150.797 59.0938C150.276 60.2396 149.599 61.8021 148.766 63.7812C147.932 65.5521 146.891 67.8958 145.641 70.8125C144.495 73.625 142.984 77.2708 141.109 81.75C140.172 77.8958 139.026 74.5104 137.672 71.5938C136.318 68.6771 134.859 66.125 133.297 63.9375C131.734 61.75 130.068 59.9792 128.297 58.625C126.63 57.1667 124.964 55.9688 123.297 55.0312C119.443 52.9479 115.38 51.8021 111.109 51.5938C105.484 51.9062 101.057 52.8438 97.8281 54.4062C94.7031 55.8646 92.4115 57.5833 90.9531 59.5625C89.4948 61.4375 88.7135 63.4167 88.6094 65.5C88.5052 67.4792 88.7656 69.1458 89.3906 70.5C89.9115 71.75 91.7344 73.2083 94.8594 74.875C98.0885 76.5417 101.943 78.4688 106.422 80.6562C111.005 82.7396 115.901 85.1354 121.109 87.8438C126.318 90.4479 131.109 93.3646 135.484 96.5938C139.964 99.7188 143.714 103.156 146.734 106.906C149.859 110.552 151.578 114.458 151.891 118.625C152.203 123.938 152.151 128.729 151.734 133C151.318 137.271 149.859 140.917 147.359 143.938C144.859 146.958 140.953 149.354 135.641 151.125C130.432 152.896 123.193 153.99 113.922 154.406C104.339 154.823 96.474 154.302 90.3281 152.844C84.1823 151.385 79.1823 149.406 75.3281 146.906C71.5781 144.406 68.7656 141.646 66.8906 138.625C65.1198 135.604 63.8177 132.74 62.9844 130.031C62.151 127.219 61.5781 124.823 61.2656 122.844C60.9531 120.76 60.4323 119.51 59.7031 119.094C58.8698 118.573 58.0365 118.104 57.2031 117.688C56.474 117.271 55.6927 116.906 54.8594 116.594C54.026 116.177 53.1927 115.812 52.3594 115.5L97.8281 108.156C95.224 110.24 93.1927 112.167 91.7344 113.938C90.3802 115.708 89.3385 117.271 88.6094 118.625C87.776 120.188 87.2031 121.646 86.8906 123C86.6823 124.458 87.151 126.281 88.2969 128.469C89.4427 130.656 91.0052 132.792 92.9844 134.875C95.0677 136.854 97.4635 138.521 100.172 139.875C102.88 141.229 105.693 141.802 108.609 141.594C112.255 141.281 115.224 140.396 117.516 138.938C119.807 137.375 121.526 135.448 122.672 133.156C123.922 130.865 124.651 128.365 124.859 125.656C125.068 122.948 124.807 120.292 124.078 117.688C123.453 114.979 122.411 112.479 120.953 110.188C119.495 107.792 117.776 105.812 115.797 104.25C114.026 103 111.266 101.802 107.516 100.656C103.87 99.5104 99.7552 98.2604 95.1719 96.9062C90.6927 95.5521 86.0573 93.9896 81.2656 92.2188C76.5781 90.4479 72.3073 88.2604 68.4531 85.6562C64.7031 83.0521 61.6823 79.9792 59.3906 76.4375C57.2031 72.8958 56.3698 68.625 56.8906 63.625C57.3073 59.3542 58.6615 55.8125 60.9531 53C63.349 50.0833 66.3177 47.7917 69.8594 46.125C73.5052 44.3542 77.5156 43.0521 81.8906 42.2188C86.3698 41.3854 90.901 40.9167 95.4844 40.8125C100.172 40.6042 104.755 40.6562 109.234 40.9688C113.818 41.2812 117.932 41.6458 121.578 42.0625C125.224 42.4792 128.297 42.8958 130.797 43.3125C133.401 43.625 135.016 43.8333 135.641 43.9375C138.349 44.1458 141.057 44.0938 143.766 43.7812C146.161 43.5729 148.766 43.1042 151.578 42.375C154.495 41.5417 157.307 40.2917 160.016 38.625Z" fill="white"/>
<path d="M82.4043 179.266C82.0762 180.016 81.7832 180.672 81.5254 181.234C81.2676 181.797 81.0449 182.277 80.8574 182.676C80.6465 183.121 80.4707 183.52 80.3301 183.871C80.2129 184.129 80.0605 184.48 79.873 184.926C79.6855 185.324 79.4512 185.852 79.1699 186.508C78.9121 187.141 78.5723 187.961 78.1504 188.969C77.9395 188.102 77.6816 187.34 77.377 186.684C77.0723 186.027 76.7441 185.453 76.3926 184.961C76.041 184.469 75.666 184.07 75.2676 183.766C74.8926 183.438 74.5176 183.168 74.1426 182.957C73.2754 182.488 72.3613 182.23 71.4004 182.184C70.1348 182.254 69.1387 182.465 68.4121 182.816C67.709 183.145 67.1934 183.531 66.8652 183.977C66.5371 184.398 66.3613 184.844 66.3379 185.312C66.3145 185.758 66.373 186.133 66.5137 186.438C66.6309 186.719 67.041 187.047 67.7441 187.422C68.4707 187.797 69.3379 188.23 70.3457 188.723C71.377 189.191 72.4785 189.73 73.6504 190.34C74.8223 190.926 75.9004 191.582 76.8848 192.309C77.8926 193.012 78.7363 193.785 79.416 194.629C80.1191 195.449 80.5059 196.328 80.5762 197.266C80.6465 198.461 80.6348 199.539 80.541 200.5C80.4473 201.461 80.1191 202.281 79.5566 202.961C78.9941 203.641 78.1152 204.18 76.9199 204.578C75.748 204.977 74.1191 205.223 72.0332 205.316C69.877 205.41 68.1074 205.293 66.7246 204.965C65.3418 204.637 64.2168 204.191 63.3496 203.629C62.5059 203.066 61.873 202.445 61.4512 201.766C61.0527 201.086 60.7598 200.441 60.5723 199.832C60.3848 199.199 60.2559 198.66 60.1855 198.215C60.1152 197.746 59.998 197.465 59.834 197.371C59.6465 197.254 59.459 197.148 59.2715 197.055C59.1074 196.961 58.9316 196.879 58.7441 196.809C58.5566 196.715 58.3691 196.633 58.1816 196.562L68.4121 194.91C67.8262 195.379 67.3691 195.812 67.041 196.211C66.7363 196.609 66.502 196.961 66.3379 197.266C66.1504 197.617 66.0215 197.945 65.9512 198.25C65.9043 198.578 66.0098 198.988 66.2676 199.48C66.5254 199.973 66.877 200.453 67.3223 200.922C67.791 201.367 68.3301 201.742 68.9395 202.047C69.5488 202.352 70.1816 202.48 70.8379 202.434C71.6582 202.363 72.3262 202.164 72.8418 201.836C73.3574 201.484 73.7441 201.051 74.002 200.535C74.2832 200.02 74.4473 199.457 74.4941 198.848C74.541 198.238 74.4824 197.641 74.3184 197.055C74.1777 196.445 73.9434 195.883 73.6152 195.367C73.2871 194.828 72.9004 194.383 72.4551 194.031C72.0566 193.75 71.4355 193.48 70.5918 193.223C69.7715 192.965 68.8457 192.684 67.8145 192.379C66.8066 192.074 65.7637 191.723 64.6855 191.324C63.6309 190.926 62.6699 190.434 61.8027 189.848C60.959 189.262 60.2793 188.57 59.7637 187.773C59.2715 186.977 59.084 186.016 59.2012 184.891C59.2949 183.93 59.5996 183.133 60.1152 182.5C60.6543 181.844 61.3223 181.328 62.1191 180.953C62.9395 180.555 63.8418 180.262 64.8262 180.074C65.834 179.887 66.8535 179.781 67.8848 179.758C68.9395 179.711 69.9707 179.723 70.9785 179.793C72.0098 179.863 72.9355 179.945 73.7559 180.039C74.5762 180.133 75.2676 180.227 75.8301 180.32C76.416 180.391 76.7793 180.438 76.9199 180.461C77.5293 180.508 78.1387 180.496 78.748 180.426C79.2871 180.379 79.873 180.273 80.5059 180.109C81.1621 179.922 81.7949 179.641 82.4043 179.266ZM82.5801 178.352C83.1191 178.445 83.6113 178.516 84.0566 178.562C84.502 178.586 84.877 178.609 85.1816 178.633C85.5332 178.656 85.8379 178.668 86.0957 178.668C86.4473 178.645 86.8574 178.609 87.3262 178.562C87.7246 178.516 88.2051 178.457 88.7676 178.387C89.3535 178.316 90.0215 178.223 90.7715 178.105C90.4199 178.293 90.127 178.48 89.8926 178.668C89.6582 178.832 89.4707 179.008 89.3301 179.195C89.166 179.406 89.0371 179.605 88.9434 179.793C88.8262 180.098 88.6973 180.73 88.5566 181.691C88.416 182.512 88.2402 183.73 88.0293 185.348C87.8418 186.965 87.5957 189.156 87.291 191.922C88.1348 191.078 88.9316 190.445 89.6816 190.023C90.4551 189.578 91.1348 189.262 91.7207 189.074C92.4004 188.863 93.0332 188.758 93.6191 188.758C94.3457 188.828 95.084 189.062 95.834 189.461C96.6074 189.836 97.3223 190.281 97.9785 190.797C98.6582 191.312 99.2441 191.863 99.7363 192.449C100.252 193.035 100.615 193.551 100.826 193.996C100.967 194.301 101.037 194.699 101.037 195.191C101.037 195.66 100.99 196.176 100.896 196.738C100.803 197.301 100.674 197.875 100.51 198.461C100.346 199.047 100.182 199.598 100.018 200.113C99.877 200.629 99.748 201.086 99.6309 201.484C99.5137 201.859 99.4434 202.129 99.4199 202.293C99.373 202.645 99.3965 202.984 99.4902 203.312C99.5605 203.594 99.7012 203.898 99.9121 204.227C100.123 204.531 100.439 204.789 100.861 205C100.533 204.953 100.182 204.918 99.8066 204.895C99.4551 204.848 99.1152 204.812 98.7871 204.789C98.4121 204.766 98.0371 204.754 97.6621 204.754H96.3965C95.998 204.754 95.541 204.766 95.0254 204.789C94.5098 204.789 93.9473 204.801 93.3379 204.824C93.666 204.707 93.9473 204.555 94.1816 204.367C94.416 204.156 94.6152 203.957 94.7793 203.77C94.9668 203.559 95.1309 203.336 95.2715 203.102C95.3652 202.914 95.4824 202.562 95.623 202.047C95.7637 201.508 95.8926 200.898 96.0098 200.219C96.127 199.516 96.209 198.777 96.2559 198.004C96.3262 197.23 96.3379 196.492 96.291 195.789C96.2676 195.062 96.1621 194.418 95.9746 193.855C95.8105 193.293 95.5527 192.883 95.2012 192.625C94.1465 191.828 93.1855 191.441 92.3184 191.465C91.4746 191.465 90.666 191.805 89.8926 192.484C89.6113 192.742 89.3418 193 89.084 193.258C88.8496 193.492 88.5918 193.773 88.3105 194.102C88.0293 194.406 87.7715 194.723 87.5371 195.051C87.5371 195.402 87.5488 195.789 87.5723 196.211C87.5957 196.633 87.6191 197.043 87.6426 197.441C87.666 197.887 87.7012 198.332 87.748 198.777C87.7949 199.457 87.8652 200.125 87.959 200.781C88.0293 201.344 88.123 201.965 88.2402 202.645C88.3574 203.301 88.5098 203.898 88.6973 204.438C88.3926 204.391 88.0762 204.379 87.748 204.402C87.4199 204.402 87.1035 204.402 86.7988 204.402C86.4473 204.426 86.1074 204.438 85.7793 204.438C85.4746 204.461 85.1582 204.496 84.8301 204.543C84.5488 204.59 84.2441 204.637 83.916 204.684C83.5879 204.707 83.2715 204.754 82.9668 204.824C83.248 204.285 83.4824 203.758 83.6699 203.242C83.8574 202.703 84.0098 202.234 84.127 201.836C84.2676 201.367 84.3848 200.91 84.4785 200.465C84.5488 200.113 84.5957 199.445 84.6191 198.461C84.666 197.453 84.7012 196.305 84.7246 195.016C84.748 193.703 84.7598 192.32 84.7598 190.867C84.7598 189.414 84.748 188.031 84.7246 186.719C84.7012 185.406 84.6543 184.258 84.584 183.273C84.5371 182.289 84.4785 181.609 84.4082 181.234C84.3145 180.859 84.1855 180.484 84.0215 180.109C83.8809 179.781 83.6934 179.465 83.459 179.16C83.2246 178.832 82.9316 178.562 82.5801 178.352ZM105.08 190.762C105.197 190.621 105.268 190.363 105.291 189.988C105.338 189.59 105.432 189.145 105.572 188.652C105.736 188.16 106.006 187.645 106.381 187.105C106.756 186.566 107.365 186.062 108.209 185.594C109.029 185.125 109.826 184.844 110.6 184.75C111.373 184.656 112.111 184.691 112.814 184.855C113.518 185.02 114.174 185.277 114.783 185.629C115.416 185.98 115.99 186.367 116.506 186.789C116.857 187.07 117.139 187.48 117.35 188.02C117.561 188.535 117.725 189.121 117.842 189.777C117.959 190.434 118.041 191.125 118.088 191.852C118.158 192.555 118.205 193.246 118.229 193.926C118.252 194.582 118.264 195.191 118.264 195.754C118.287 196.293 118.334 196.738 118.404 197.09C118.498 197.605 118.662 198.051 118.896 198.426C119.131 198.777 119.389 199.082 119.67 199.34C119.951 199.574 120.232 199.762 120.514 199.902C120.795 200.043 121.041 200.148 121.252 200.219C121.393 200.289 121.521 200.336 121.639 200.359C121.873 200.453 122.037 200.453 122.131 200.359C121.99 200.688 121.861 200.969 121.744 201.203C121.627 201.438 121.533 201.637 121.463 201.801C121.369 201.988 121.287 202.141 121.217 202.258C121.146 202.398 121.064 202.527 120.971 202.645C120.9 202.762 120.807 202.891 120.689 203.031C120.572 203.172 120.455 203.324 120.338 203.488C120.033 203.371 119.74 203.23 119.459 203.066C119.201 202.902 118.967 202.75 118.756 202.609C118.498 202.445 118.264 202.281 118.053 202.117C117.842 201.953 117.643 201.766 117.455 201.555C117.291 201.367 117.115 201.168 116.928 200.957C116.764 200.746 116.623 200.512 116.506 200.254C116.365 200.559 116.025 200.992 115.486 201.555C114.971 202.117 114.291 202.633 113.447 203.102C112.604 203.547 111.619 203.863 110.494 204.051C109.393 204.238 108.174 204.109 106.838 203.664C106.252 203.477 105.701 203.207 105.186 202.855C104.67 202.48 104.225 202.035 103.85 201.52C103.498 201.004 103.24 200.418 103.076 199.762C102.936 199.082 102.947 198.332 103.111 197.512C103.275 196.691 103.568 196 103.99 195.438C104.412 194.875 104.916 194.418 105.502 194.066C106.088 193.715 106.744 193.445 107.471 193.258C108.197 193.07 108.947 192.941 109.721 192.871C110.33 192.848 110.939 192.883 111.549 192.977C112.064 193.07 112.604 193.246 113.166 193.504C113.729 193.738 114.209 194.102 114.607 194.594C114.584 193.352 114.537 192.367 114.467 191.641C114.42 190.891 114.373 190.316 114.326 189.918C114.232 189.449 114.15 189.121 114.08 188.934C113.963 188.77 113.834 188.582 113.693 188.371C113.576 188.16 113.424 187.973 113.236 187.809C113.049 187.621 112.814 187.469 112.533 187.352C112.252 187.234 111.924 187.188 111.549 187.211C111.15 187.234 110.834 187.34 110.6 187.527C110.365 187.715 110.178 187.938 110.037 188.195C109.92 188.43 109.85 188.688 109.826 188.969C109.803 189.25 109.814 189.496 109.861 189.707C109.908 189.848 109.979 190 110.072 190.164C110.166 190.305 110.295 190.457 110.459 190.621C110.623 190.785 110.846 190.926 111.127 191.043C110.588 191.113 110.107 191.172 109.686 191.219C109.264 191.242 108.9 191.277 108.596 191.324C108.244 191.371 107.939 191.406 107.682 191.43C107.424 191.453 107.119 191.5 106.768 191.57C106.463 191.617 106.088 191.676 105.643 191.746C105.197 191.816 104.682 191.91 104.096 192.027C104.236 191.863 104.365 191.711 104.482 191.57C104.6 191.406 104.705 191.266 104.799 191.148C104.893 191.008 104.986 190.879 105.08 190.762ZM110.354 194.945C109.932 194.969 109.51 195.074 109.088 195.262C108.666 195.426 108.291 195.672 107.963 196C107.635 196.305 107.354 196.668 107.119 197.09C106.908 197.488 106.803 197.934 106.803 198.426C106.803 198.918 106.92 199.352 107.154 199.727C107.412 200.078 107.74 200.371 108.139 200.605C108.561 200.84 109.006 200.98 109.475 201.027C109.967 201.074 110.447 201.027 110.916 200.887C111.361 200.723 111.783 200.465 112.182 200.113C112.58 199.738 112.92 199.34 113.201 198.918C113.482 198.473 113.682 198.039 113.799 197.617C113.916 197.172 113.928 196.809 113.834 196.527C113.646 195.918 113.225 195.496 112.568 195.262C111.912 195.004 111.174 194.898 110.354 194.945ZM121.428 188.16C121.873 188.184 122.271 188.195 122.623 188.195C122.998 188.172 123.314 188.148 123.572 188.125C123.877 188.102 124.146 188.078 124.381 188.055C124.732 188.008 125.096 187.949 125.471 187.879C125.799 187.832 126.139 187.773 126.49 187.703C126.865 187.609 127.229 187.504 127.58 187.387C127.439 187.738 127.322 188.043 127.229 188.301C127.135 188.559 127.064 188.781 127.018 188.969C126.947 189.18 126.912 189.355 126.912 189.496C126.889 189.66 126.877 189.859 126.877 190.094C126.854 190.492 126.854 191.137 126.877 192.027C128.096 190.973 129.115 190.152 129.936 189.566C130.779 188.98 131.447 188.523 131.939 188.195C132.525 187.82 132.982 187.574 133.311 187.457C134.178 187.316 134.939 187.516 135.596 188.055C135.877 188.289 136.146 188.605 136.404 189.004C136.662 189.379 136.885 189.883 137.072 190.516C137.26 191.148 137.4 191.91 137.494 192.801C137.588 193.668 137.6 194.711 137.529 195.93C137.037 195.977 136.592 196.023 136.193 196.07C135.818 196.117 135.502 196.152 135.244 196.176C134.939 196.223 134.658 196.246 134.4 196.246L133.451 196.352C133.123 196.398 132.713 196.445 132.221 196.492C131.752 196.516 131.178 196.562 130.498 196.633C131.482 195.836 132.115 195.145 132.396 194.559C132.701 193.949 132.83 193.445 132.783 193.047C132.736 192.602 132.525 192.215 132.15 191.887C131.705 191.629 131.225 191.535 130.709 191.605C130.264 191.652 129.748 191.852 129.162 192.203C128.576 192.555 127.955 193.211 127.299 194.172C127.346 195.672 127.393 196.914 127.439 197.898C127.51 198.883 127.568 199.68 127.615 200.289C127.686 200.992 127.744 201.543 127.791 201.941C127.861 202.293 128.002 202.668 128.213 203.066C128.377 203.395 128.611 203.758 128.916 204.156C129.221 204.555 129.619 204.953 130.111 205.352C129.08 205.305 128.236 205.305 127.58 205.352C127.182 205.375 126.83 205.398 126.525 205.422C126.197 205.469 125.846 205.516 125.471 205.562C125.143 205.609 124.756 205.656 124.311 205.703C123.889 205.773 123.42 205.844 122.904 205.914C123.092 205.656 123.244 205.352 123.361 205C123.479 204.672 123.572 204.355 123.643 204.051C123.736 203.699 123.807 203.336 123.854 202.961C123.877 202.633 123.889 202.141 123.889 201.484C123.912 200.828 123.9 200.09 123.854 199.27C123.83 198.426 123.795 197.559 123.748 196.668C123.701 195.754 123.643 194.898 123.572 194.102C123.502 193.305 123.42 192.613 123.326 192.027C123.256 191.418 123.174 190.996 123.08 190.762C122.963 190.48 122.822 190.199 122.658 189.918C122.518 189.66 122.342 189.391 122.131 189.109C121.92 188.805 121.686 188.488 121.428 188.16ZM148.146 199.34C148.803 199.34 149.412 199.27 149.975 199.129C150.443 199.012 150.889 198.824 151.311 198.566C151.756 198.285 152.049 197.875 152.189 197.336C152.658 197.43 153.057 197.512 153.385 197.582C153.713 197.629 153.994 197.676 154.229 197.723C154.486 197.793 154.709 197.84 154.896 197.863C155.084 197.91 155.307 197.957 155.564 198.004C155.799 198.051 156.08 198.109 156.408 198.18C156.76 198.227 157.17 198.297 157.639 198.391C157.287 198.344 156.924 198.379 156.549 198.496C156.197 198.613 155.857 198.742 155.529 198.883C155.154 199.047 154.803 199.246 154.475 199.48C154.264 199.621 154.018 199.832 153.736 200.113C153.479 200.395 153.104 200.664 152.611 200.922C152.119 201.18 151.463 201.402 150.643 201.59C149.846 201.754 148.814 201.812 147.549 201.766C146.025 201.719 144.748 201.449 143.717 200.957C142.686 200.441 141.854 199.82 141.221 199.094C140.588 198.344 140.131 197.535 139.85 196.668C139.568 195.801 139.416 194.992 139.393 194.242C139.369 193.492 139.592 192.707 140.061 191.887C140.529 191.066 141.186 190.316 142.029 189.637C142.896 188.957 143.939 188.406 145.158 187.984C146.377 187.539 147.713 187.316 149.166 187.316C150.01 187.316 150.783 187.422 151.486 187.633C152.213 187.82 152.869 188.078 153.455 188.406C154.064 188.734 154.592 189.109 155.037 189.531C155.482 189.93 155.857 190.34 156.162 190.762C156.467 191.207 156.725 191.676 156.936 192.168C157.123 192.59 157.275 193.07 157.393 193.609C157.51 194.148 157.545 194.699 157.498 195.262C155.717 195.309 154.275 195.344 153.174 195.367C152.096 195.391 151.252 195.402 150.643 195.402H149.061H147.865C147.443 195.402 146.893 195.414 146.213 195.438C145.533 195.461 144.701 195.496 143.717 195.543C143.834 196.48 144.127 197.207 144.596 197.723C145.088 198.215 145.604 198.59 146.143 198.848C146.752 199.129 147.42 199.293 148.146 199.34ZM144.982 193.012C145.732 193.059 146.354 193.094 146.846 193.117C147.361 193.141 147.783 193.164 148.111 193.188C148.463 193.211 148.744 193.223 148.955 193.223H149.834C150.42 193.223 151.51 193.188 153.104 193.117C153.033 192.086 152.811 191.301 152.436 190.762C152.084 190.223 151.709 189.824 151.311 189.566C150.842 189.285 150.326 189.121 149.764 189.074C148.24 189.098 147.104 189.414 146.354 190.023C145.627 190.633 145.17 191.629 144.982 193.012Z" fill="white"/>
<defs>
<linearGradient id="paint0_linear_1_27" x1="45" y1="36" x2="160" y2="179" gradientUnits="userSpaceOnUse">
<stop stop-color="#4DA3FF"/>
<stop offset="1" stop-color="#5CDB95"/>
</linearGradient>
</defs>
</svg>
