<svg width="344" height="188" viewBox="0 0 344 188" fill="none" xmlns="http://www.w3.org/2000/svg">
<rect y="14" width="344" height="172" rx="80" fill="url(#paint0_linear_7_14)"/>
<path d="M135.016 38.625C133.557 41.9583 132.255 44.875 131.109 47.375C129.964 49.875 128.974 52.0104 128.141 53.7812C127.203 55.7604 126.422 57.5312 125.797 59.0938C125.276 60.2396 124.599 61.8021 123.766 63.7812C122.932 65.5521 121.891 67.8958 120.641 70.8125C119.495 73.625 117.984 77.2708 116.109 81.75C115.172 77.8958 114.026 74.5104 112.672 71.5938C111.318 68.6771 109.859 66.125 108.297 63.9375C106.734 61.75 105.068 59.9792 103.297 58.625C101.63 57.1667 99.9635 55.9688 98.2969 55.0312C94.4427 52.9479 90.3802 51.8021 86.1094 51.5938C80.4844 51.9062 76.0573 52.8438 72.8281 54.4062C69.7031 55.8646 67.4115 57.5833 65.9531 59.5625C64.4948 61.4375 63.7135 63.4167 63.6094 65.5C63.5052 67.4792 63.7656 69.1458 64.3906 70.5C64.9115 71.75 66.7344 73.2083 69.8594 74.875C73.0885 76.5417 76.9427 78.4688 81.4219 80.6562C86.0052 82.7396 90.901 85.1354 96.1094 87.8438C101.318 90.4479 106.109 93.3646 110.484 96.5938C114.964 99.7188 118.714 103.156 121.734 106.906C124.859 110.552 126.578 114.458 126.891 118.625C127.203 123.938 127.151 128.729 126.734 133C126.318 137.271 124.859 140.917 122.359 143.938C119.859 146.958 115.953 149.354 110.641 151.125C105.432 152.896 98.1927 153.99 88.9219 154.406C79.3385 154.823 71.474 154.302 65.3281 152.844C59.1823 151.385 54.1823 149.406 50.3281 146.906C46.5781 144.406 43.7656 141.646 41.8906 138.625C40.1198 135.604 38.8177 132.74 37.9844 130.031C37.151 127.219 36.5781 124.823 36.2656 122.844C35.9531 120.76 35.4323 119.51 34.7031 119.094C33.8698 118.573 33.0365 118.104 32.2031 117.688C31.474 117.271 30.6927 116.906 29.8594 116.594C29.026 116.177 28.1927 115.812 27.3594 115.5L72.8281 108.156C70.224 110.24 68.1927 112.167 66.7344 113.938C65.3802 115.708 64.3385 117.271 63.6094 118.625C62.776 120.188 62.2031 121.646 61.8906 123C61.6823 124.458 62.151 126.281 63.2969 128.469C64.4427 130.656 66.0052 132.792 67.9844 134.875C70.0677 136.854 72.4635 138.521 75.1719 139.875C77.8802 141.229 80.6927 141.802 83.6094 141.594C87.2552 141.281 90.224 140.396 92.5156 138.938C94.8073 137.375 96.526 135.448 97.6719 133.156C98.9219 130.865 99.651 128.365 99.8594 125.656C100.068 122.948 99.8073 120.292 99.0781 117.688C98.4531 114.979 97.4115 112.479 95.9531 110.188C94.4948 107.792 92.776 105.812 90.7969 104.25C89.026 103 86.2656 101.802 82.5156 100.656C78.8698 99.5104 74.7552 98.2604 70.1719 96.9062C65.6927 95.5521 61.0573 93.9896 56.2656 92.2188C51.5781 90.4479 47.3073 88.2604 43.4531 85.6562C39.7031 83.0521 36.6823 79.9792 34.3906 76.4375C32.2031 72.8958 31.3698 68.625 31.8906 63.625C32.3073 59.3542 33.6615 55.8125 35.9531 53C38.349 50.0833 41.3177 47.7917 44.8594 46.125C48.5052 44.3542 52.5156 43.0521 56.8906 42.2188C61.3698 41.3854 65.901 40.9167 70.4844 40.8125C75.1719 40.6042 79.7552 40.6562 84.2344 40.9688C88.8177 41.2812 92.9323 41.6458 96.5781 42.0625C100.224 42.4792 103.297 42.8958 105.797 43.3125C108.401 43.625 110.016 43.8333 110.641 43.9375C113.349 44.1458 116.057 44.0938 118.766 43.7812C121.161 43.5729 123.766 43.1042 126.578 42.375C129.495 41.5417 132.307 40.2917 135.016 38.625Z" fill="white"/>
<path d="M174.5 87.3125C174.125 88.2292 173.792 89.0625 173.5 89.8125C173.25 90.5625 173.021 91.2292 172.812 91.8125C172.604 92.4792 172.417 93.0625 172.25 93.5625C172.083 94.1458 171.896 94.8125 171.688 95.5625C171.479 96.2292 171.208 97.0625 170.875 98.0625C170.583 99.0208 170.229 100.167 169.812 101.5C169.479 99.5 168.875 97.9167 168 96.75C167.125 95.5417 166.229 94.6042 165.312 93.9375C164.229 93.1875 163.062 92.6458 161.812 92.3125C159.562 91.9375 157.938 91.9792 156.938 92.4375C155.938 92.8958 155.271 93.4792 154.938 94.1875C154.771 94.4792 154.583 94.8542 154.375 95.3125C154.208 95.7292 154.062 96.1667 153.938 96.625C153.854 97.0833 153.833 97.5417 153.875 98C153.917 98.4583 154.104 98.8333 154.438 99.125C154.646 99.3333 155.188 99.625 156.062 100C156.938 100.333 157.979 100.729 159.188 101.188C160.438 101.604 161.75 102.062 163.125 102.562C164.542 103.062 165.875 103.562 167.125 104.062C168.375 104.562 169.458 105.062 170.375 105.562C171.292 106.062 171.896 106.521 172.188 106.938C172.438 107.354 172.708 107.917 173 108.625C173.333 109.292 173.562 110.042 173.688 110.875C173.854 111.667 173.896 112.5 173.812 113.375C173.771 114.208 173.542 115.042 173.125 115.875C172.708 116.708 172.042 117.479 171.125 118.188C170.25 118.896 169.062 119.479 167.562 119.938C165.812 120.479 164.125 120.625 162.5 120.375C160.875 120.125 159.375 119.75 158 119.25C156.667 118.75 155.5 118.271 154.5 117.812C153.5 117.312 152.792 117.104 152.375 117.188C151.917 117.271 151.396 117.5 150.812 117.875C150.229 118.25 149.667 118.646 149.125 119.062C148.625 119.438 148.188 119.792 147.812 120.125C147.438 120.417 147.25 120.521 147.25 120.438C147.25 120.354 147.312 120.104 147.438 119.688C147.604 119.271 147.771 118.771 147.938 118.188C148.146 117.562 148.333 116.896 148.5 116.188C148.708 115.438 148.854 114.729 148.938 114.062C149.021 113.521 149.125 112.854 149.25 112.062C149.333 111.354 149.438 110.5 149.562 109.5C149.729 108.458 149.917 107.208 150.125 105.75C150.333 106.833 150.625 107.771 151 108.562C151.417 109.354 151.812 110.042 152.188 110.625C152.646 111.292 153.083 111.854 153.5 112.312C154.125 112.896 154.854 113.438 155.688 113.938C156.562 114.438 157.438 114.875 158.312 115.25C159.188 115.583 160.021 115.792 160.812 115.875C161.604 115.958 162.271 115.875 162.812 115.625C163.354 115.375 163.812 114.917 164.188 114.25C164.604 113.583 164.896 112.854 165.062 112.062C165.229 111.271 165.292 110.521 165.25 109.812C165.208 109.062 165.021 108.458 164.688 108C164.438 107.708 163.854 107.333 162.938 106.875C162.062 106.417 161 105.917 159.75 105.375C158.542 104.833 157.25 104.271 155.875 103.688C154.542 103.104 153.271 102.521 152.062 101.938C150.896 101.312 149.917 100.729 149.125 100.188C148.375 99.6042 147.958 99.0833 147.875 98.625C147.792 97.9583 147.729 97.2292 147.688 96.4375C147.646 95.6042 147.688 94.7917 147.812 94C147.979 93.1667 148.271 92.375 148.688 91.625C149.146 90.875 149.812 90.25 150.688 89.75C151.271 89.4167 152.042 89.1667 153 89C153.958 88.8333 155.021 88.75 156.188 88.75C157.354 88.7083 158.562 88.75 159.812 88.875C161.062 88.9583 162.25 89.0833 163.375 89.25C164.542 89.375 165.583 89.5417 166.5 89.75C167.458 89.9583 168.188 90.1458 168.688 90.3125C169.271 90.5208 169.896 90.5417 170.562 90.375C171.146 90.25 171.771 89.9792 172.438 89.5625C173.104 89.1458 173.792 88.3958 174.5 87.3125ZM176.438 75.625C177.396 75.7917 178.271 75.9167 179.062 76C179.854 76.0417 180.521 76.0833 181.062 76.125C181.688 76.1667 182.229 76.1875 182.688 76.1875C183.312 76.1458 184.042 76.0833 184.875 76C185.583 75.9167 186.438 75.8125 187.438 75.6875C188.479 75.5625 189.667 75.3958 191 75.1875C190.375 75.5208 189.854 75.8542 189.438 76.1875C189.021 76.4792 188.688 76.7917 188.438 77.125C188.146 77.5 187.917 77.8542 187.75 78.1875C187.542 78.7292 187.312 79.8542 187.062 81.5625C186.812 83.0208 186.5 85.1875 186.125 88.0625C185.792 90.9375 185.354 94.8333 184.812 99.75C186.312 98.25 187.729 97.125 189.062 96.375C190.438 95.5833 191.646 95.0208 192.688 94.6875C193.896 94.3125 195.021 94.125 196.062 94.125C197.354 94.25 198.667 94.6667 200 95.375C201.375 96.0417 202.646 96.8333 203.812 97.75C205.021 98.6667 206.062 99.6458 206.938 100.688C207.854 101.729 208.5 102.646 208.875 103.438C209.125 103.979 209.25 104.688 209.25 105.562C209.25 106.396 209.167 107.312 209 108.312C208.833 109.312 208.604 110.333 208.312 111.375C208.021 112.417 207.729 113.396 207.438 114.312C207.188 115.229 206.958 116.042 206.75 116.75C206.542 117.417 206.417 117.896 206.375 118.188C206.292 118.812 206.333 119.417 206.5 120C206.625 120.5 206.875 121.042 207.25 121.625C207.625 122.167 208.188 122.625 208.938 123C208.354 122.917 207.729 122.854 207.062 122.812C206.438 122.729 205.833 122.667 205.25 122.625C204.583 122.583 203.917 122.562 203.25 122.562H201C200.292 122.562 199.479 122.583 198.562 122.625C197.646 122.625 196.646 122.646 195.562 122.688C196.146 122.479 196.646 122.208 197.062 121.875C197.479 121.5 197.833 121.146 198.125 120.812C198.458 120.438 198.75 120.042 199 119.625C199.167 119.292 199.375 118.667 199.625 117.75C199.875 116.792 200.104 115.708 200.312 114.5C200.521 113.25 200.667 111.938 200.75 110.562C200.875 109.188 200.896 107.875 200.812 106.625C200.771 105.333 200.583 104.188 200.25 103.188C199.958 102.188 199.5 101.458 198.875 101C197 99.5833 195.292 98.8958 193.75 98.9375C192.25 98.9375 190.812 99.5417 189.438 100.75C188.938 101.208 188.458 101.667 188 102.125C187.583 102.542 187.125 103.042 186.625 103.625C186.125 104.167 185.667 104.729 185.25 105.312C185.25 105.938 185.271 106.625 185.312 107.375C185.354 108.125 185.396 108.854 185.438 109.562C185.479 110.354 185.542 111.146 185.625 111.938C185.708 113.146 185.833 114.333 186 115.5C186.125 116.5 186.292 117.604 186.5 118.812C186.708 119.979 186.979 121.042 187.312 122C186.771 121.917 186.208 121.896 185.625 121.938C185.042 121.938 184.479 121.938 183.938 121.938C183.312 121.979 182.708 122 182.125 122C181.583 122.042 181.021 122.104 180.438 122.188C179.938 122.271 179.396 122.354 178.812 122.438C178.229 122.479 177.667 122.562 177.125 122.688C177.625 121.729 178.042 120.792 178.375 119.875C178.708 118.917 178.979 118.083 179.188 117.375C179.438 116.542 179.646 115.729 179.812 114.938C179.938 114.312 180.021 113.125 180.062 111.375C180.146 109.583 180.208 107.542 180.25 105.25C180.292 102.917 180.312 100.458 180.312 97.875C180.312 95.2917 180.292 92.8333 180.25 90.5C180.208 88.1667 180.125 86.125 180 84.375C179.917 82.625 179.812 81.4167 179.688 80.75C179.521 80.0833 179.292 79.4167 179 78.75C178.75 78.1667 178.417 77.6042 178 77.0625C177.583 76.4792 177.062 76 176.438 75.625ZM216.438 97.6875C216.646 97.4375 216.771 96.9792 216.812 96.3125C216.896 95.6042 217.062 94.8125 217.312 93.9375C217.604 93.0625 218.083 92.1458 218.75 91.1875C219.417 90.2292 220.5 89.3333 222 88.5C223.458 87.6667 224.875 87.1667 226.25 87C227.625 86.8333 228.938 86.8958 230.188 87.1875C231.438 87.4792 232.604 87.9375 233.688 88.5625C234.812 89.1875 235.833 89.875 236.75 90.625C237.375 91.125 237.875 91.8542 238.25 92.8125C238.625 93.7292 238.917 94.7708 239.125 95.9375C239.333 97.1042 239.479 98.3333 239.562 99.625C239.688 100.875 239.771 102.104 239.812 103.312C239.854 104.479 239.875 105.562 239.875 106.562C239.917 107.521 240 108.312 240.125 108.938C240.292 109.854 240.583 110.646 241 111.312C241.417 111.938 241.875 112.479 242.375 112.938C242.875 113.354 243.375 113.688 243.875 113.938C244.375 114.188 244.812 114.375 245.188 114.5C245.438 114.625 245.667 114.708 245.875 114.75C246.292 114.917 246.583 114.917 246.75 114.75C246.5 115.333 246.271 115.833 246.062 116.25C245.854 116.667 245.688 117.021 245.562 117.312C245.396 117.646 245.25 117.917 245.125 118.125C245 118.375 244.854 118.604 244.688 118.812C244.562 119.021 244.396 119.25 244.188 119.5C243.979 119.75 243.771 120.021 243.562 120.312C243.021 120.104 242.5 119.854 242 119.562C241.542 119.271 241.125 119 240.75 118.75C240.292 118.458 239.875 118.167 239.5 117.875C239.125 117.583 238.771 117.25 238.438 116.875C238.146 116.542 237.833 116.188 237.5 115.812C237.208 115.438 236.958 115.021 236.75 114.562C236.5 115.104 235.896 115.875 234.938 116.875C234.021 117.875 232.812 118.792 231.312 119.625C229.812 120.417 228.062 120.979 226.062 121.312C224.104 121.646 221.938 121.417 219.562 120.625C218.521 120.292 217.542 119.812 216.625 119.188C215.708 118.521 214.917 117.729 214.25 116.812C213.625 115.896 213.167 114.854 212.875 113.688C212.625 112.479 212.646 111.146 212.938 109.688C213.229 108.229 213.75 107 214.5 106C215.25 105 216.146 104.188 217.188 103.562C218.229 102.938 219.396 102.458 220.688 102.125C221.979 101.792 223.312 101.562 224.688 101.438C225.771 101.396 226.854 101.458 227.938 101.625C228.854 101.792 229.812 102.104 230.812 102.562C231.812 102.979 232.667 103.625 233.375 104.5C233.333 102.292 233.25 100.542 233.125 99.25C233.042 97.9167 232.958 96.8958 232.875 96.1875C232.708 95.3542 232.562 94.7708 232.438 94.4375C232.229 94.1458 232 93.8125 231.75 93.4375C231.542 93.0625 231.271 92.7292 230.938 92.4375C230.604 92.1042 230.188 91.8333 229.688 91.625C229.188 91.4167 228.604 91.3333 227.938 91.375C227.229 91.4167 226.667 91.6042 226.25 91.9375C225.833 92.2708 225.5 92.6667 225.25 93.125C225.042 93.5417 224.917 94 224.875 94.5C224.833 95 224.854 95.4375 224.938 95.8125C225.021 96.0625 225.146 96.3333 225.312 96.625C225.479 96.875 225.708 97.1458 226 97.4375C226.292 97.7292 226.688 97.9792 227.188 98.1875C226.229 98.3125 225.375 98.4167 224.625 98.5C223.875 98.5417 223.229 98.6042 222.688 98.6875C222.062 98.7708 221.521 98.8333 221.062 98.875C220.604 98.9167 220.062 99 219.438 99.125C218.896 99.2083 218.229 99.3125 217.438 99.4375C216.646 99.5625 215.729 99.7292 214.688 99.9375C214.938 99.6458 215.167 99.375 215.375 99.125C215.583 98.8333 215.771 98.5833 215.938 98.375C216.104 98.125 216.271 97.8958 216.438 97.6875ZM225.812 105.125C225.062 105.167 224.312 105.354 223.562 105.688C222.812 105.979 222.146 106.417 221.562 107C220.979 107.542 220.479 108.188 220.062 108.938C219.688 109.646 219.5 110.438 219.5 111.312C219.5 112.188 219.708 112.958 220.125 113.625C220.583 114.25 221.167 114.771 221.875 115.188C222.625 115.604 223.417 115.854 224.25 115.938C225.125 116.021 225.979 115.938 226.812 115.688C227.604 115.396 228.354 114.938 229.062 114.312C229.771 113.646 230.375 112.938 230.875 112.188C231.375 111.396 231.729 110.625 231.938 109.875C232.146 109.083 232.167 108.438 232 107.938C231.667 106.854 230.917 106.104 229.75 105.688C228.583 105.229 227.271 105.042 225.812 105.125ZM245.5 93.0625C246.292 93.1042 247 93.125 247.625 93.125C248.292 93.0833 248.854 93.0417 249.312 93C249.854 92.9583 250.333 92.9167 250.75 92.875C251.375 92.7917 252.021 92.6875 252.688 92.5625C253.271 92.4792 253.875 92.375 254.5 92.25C255.167 92.0833 255.812 91.8958 256.438 91.6875C256.188 92.3125 255.979 92.8542 255.812 93.3125C255.646 93.7708 255.521 94.1667 255.438 94.5C255.312 94.875 255.25 95.1875 255.25 95.4375C255.208 95.7292 255.188 96.0833 255.188 96.5C255.146 97.2083 255.146 98.3542 255.188 99.9375C257.354 98.0625 259.167 96.6042 260.625 95.5625C262.125 94.5208 263.312 93.7083 264.188 93.125C265.229 92.4583 266.042 92.0208 266.625 91.8125C268.167 91.5625 269.521 91.9167 270.688 92.875C271.188 93.2917 271.667 93.8542 272.125 94.5625C272.583 95.2292 272.979 96.125 273.312 97.25C273.646 98.375 273.896 99.7292 274.062 101.312C274.229 102.854 274.25 104.708 274.125 106.875C273.25 106.958 272.458 107.042 271.75 107.125C271.083 107.208 270.521 107.271 270.062 107.312C269.521 107.396 269.021 107.438 268.562 107.438L266.875 107.625C266.292 107.708 265.562 107.792 264.688 107.875C263.854 107.917 262.833 108 261.625 108.125C263.375 106.708 264.5 105.479 265 104.438C265.542 103.354 265.771 102.458 265.688 101.75C265.604 100.958 265.229 100.271 264.562 99.6875C263.771 99.2292 262.917 99.0625 262 99.1875C261.208 99.2708 260.292 99.625 259.25 100.25C258.208 100.875 257.104 102.042 255.938 103.75C256.021 106.417 256.104 108.625 256.188 110.375C256.312 112.125 256.417 113.542 256.5 114.625C256.625 115.875 256.729 116.854 256.812 117.562C256.938 118.188 257.188 118.854 257.562 119.562C257.854 120.146 258.271 120.792 258.812 121.5C259.354 122.208 260.062 122.917 260.938 123.625C259.104 123.542 257.604 123.542 256.438 123.625C255.729 123.667 255.104 123.708 254.562 123.75C253.979 123.833 253.354 123.917 252.688 124C252.104 124.083 251.417 124.167 250.625 124.25C249.875 124.375 249.042 124.5 248.125 124.625C248.458 124.167 248.729 123.625 248.938 123C249.146 122.417 249.312 121.854 249.438 121.312C249.604 120.688 249.729 120.042 249.812 119.375C249.854 118.792 249.875 117.917 249.875 116.75C249.917 115.583 249.896 114.271 249.812 112.812C249.771 111.312 249.708 109.771 249.625 108.188C249.542 106.562 249.438 105.042 249.312 103.625C249.188 102.208 249.042 100.979 248.875 99.9375C248.75 98.8542 248.604 98.1042 248.438 97.6875C248.229 97.1875 247.979 96.6875 247.688 96.1875C247.438 95.7292 247.125 95.25 246.75 94.75C246.375 94.2083 245.958 93.6458 245.5 93.0625ZM293 112.938C294.167 112.938 295.25 112.812 296.25 112.562C297.083 112.354 297.875 112.021 298.625 111.562C299.417 111.062 299.938 110.333 300.188 109.375C301.021 109.542 301.729 109.688 302.312 109.812C302.896 109.896 303.396 109.979 303.812 110.062C304.271 110.188 304.667 110.271 305 110.312C305.333 110.396 305.729 110.479 306.188 110.562C306.604 110.646 307.104 110.75 307.688 110.875C308.312 110.958 309.042 111.083 309.875 111.25C309.25 111.167 308.604 111.229 307.938 111.438C307.312 111.646 306.708 111.875 306.125 112.125C305.458 112.417 304.833 112.771 304.25 113.188C303.875 113.438 303.438 113.812 302.938 114.312C302.479 114.812 301.812 115.292 300.938 115.75C300.062 116.208 298.896 116.604 297.438 116.938C296.021 117.229 294.188 117.333 291.938 117.25C289.229 117.167 286.958 116.688 285.125 115.812C283.292 114.896 281.812 113.792 280.688 112.5C279.562 111.167 278.75 109.729 278.25 108.188C277.75 106.646 277.479 105.208 277.438 103.875C277.396 102.542 277.792 101.146 278.625 99.6875C279.458 98.2292 280.625 96.8958 282.125 95.6875C283.667 94.4792 285.521 93.5 287.688 92.75C289.854 91.9583 292.229 91.5625 294.812 91.5625C296.312 91.5625 297.688 91.75 298.938 92.125C300.229 92.4583 301.396 92.9167 302.438 93.5C303.521 94.0833 304.458 94.75 305.25 95.5C306.042 96.2083 306.708 96.9375 307.25 97.6875C307.792 98.4792 308.25 99.3125 308.625 100.188C308.958 100.938 309.229 101.792 309.438 102.75C309.646 103.708 309.708 104.688 309.625 105.688C306.458 105.771 303.896 105.833 301.938 105.875C300.021 105.917 298.521 105.938 297.438 105.938H294.625H292.5C291.75 105.938 290.771 105.958 289.562 106C288.354 106.042 286.875 106.104 285.125 106.188C285.333 107.854 285.854 109.146 286.688 110.062C287.562 110.938 288.479 111.604 289.438 112.062C290.521 112.562 291.708 112.854 293 112.938ZM287.375 101.688C288.708 101.771 289.812 101.833 290.688 101.875C291.604 101.917 292.354 101.958 292.938 102C293.562 102.042 294.062 102.062 294.438 102.062H296C297.042 102.062 298.979 102 301.812 101.875C301.688 100.042 301.292 98.6458 300.625 97.6875C300 96.7292 299.333 96.0208 298.625 95.5625C297.792 95.0625 296.875 94.7708 295.875 94.6875C293.167 94.7292 291.146 95.2917 289.812 96.375C288.521 97.4583 287.708 99.2292 287.375 101.688Z" fill="white"/>
<defs>
<linearGradient id="paint0_linear_7_14" x1="0" y1="14" x2="344" y2="186" gradientUnits="userSpaceOnUse">
<stop stop-color="#4DA3FF"/>
<stop offset="1" stop-color="#5CDB95"/>
</linearGradient>
</defs>
</svg>
